<?xml version="1.0" encoding="UTF-8" standalone="no"?>
<!DOCTYPE svg PUBLIC "-//W3C//DTD SVG 1.1//EN" "http://www.w3.org/Graphics/SVG/1.1/DTD/svg11.dtd">
<svg width="100%" height="100%" viewBox="0 0 1024 1024" version="1.1" xmlns="http://www.w3.org/2000/svg" xmlns:xlink="http://www.w3.org/1999/xlink" xml:space="preserve" xmlns:serif="http://www.serif.com/" style="fill-rule:evenodd;clip-rule:evenodd;stroke-linejoin:round;stroke-miterlimit:2;">
    <g transform="matrix(1,0,0,1,-40,-860)">
        <path d="M964,1142.69C964,1041.86 882.138,960 781.308,960L322.692,960C221.862,960 140,1041.86 140,1142.69L140,1601.31C140,1702.14 221.862,1784 322.692,1784L781.308,1784C882.138,1784 964,1702.14 964,1601.31L964,1142.69Z" style="fill:rgb(19,51,70);"/>
    </g>
    <g transform="matrix(0.839889,0,0,0.839889,81.9768,81.9768)">
        <g transform="matrix(0.670617,0,0,0.670617,168.644,168.644)">
            <path d="M11.48,619.815C62.276,855.628 270.778,1024 512,1024C794.58,1024 1024,794.58 1024,512C1024,229.23 794.77,0 512,0L512,93.333C743.223,93.333 930.667,280.777 930.667,512C930.667,743.069 743.069,930.667 512,930.667C314.751,930.667 144.257,792.988 102.72,600.162L11.48,619.815Z" style="fill:rgb(246,236,149);"/>
        </g>
        <g transform="matrix(0.51031,0,0,0.51031,250.721,250.721)">
            <path d="M19.1,373.461C6.426,418.549 0,465.164 0,512C0,794.58 229.42,1024 512,1024C794.58,1024 1024,794.58 1024,512C1024,229.23 794.77,0 512,0L512,119.196C728.94,119.196 904.804,295.06 904.804,512C904.804,728.795 728.795,904.804 512,904.804C295.205,904.804 119.196,728.795 119.196,512C119.196,476.068 124.126,440.305 133.849,405.713L19.1,373.461Z" style="fill:rgb(33,166,163);"/>
        </g>
        <g transform="matrix(0.350003,0,0,0.350003,332.798,332.798)">
            <path d="M173.746,896.354C267.224,978.62 387.478,1024 512,1024C794.58,1024 1024,794.58 1024,512C1024,229.23 794.77,0 512,0L512,159.188C706.853,159.188 864.812,317.147 864.812,512C864.812,706.722 706.722,864.812 512,864.812C426.193,864.812 343.328,833.542 278.914,776.853L173.746,896.354Z" style="fill:rgb(143,18,12);"/>
        </g>
        <g transform="matrix(0.833595,0,0,0.833595,85.1992,85.1992)">
            <path d="M85.782,228.306C29.845,312.345 0,411.046 0,512C0,794.58 229.42,1024 512,1024C794.58,1024 1024,794.58 1024,512C1024,229.23 794.77,0 512,0L512,78.34C751.504,78.34 945.66,272.496 945.66,512C945.66,751.343 751.343,945.66 512,945.66C272.657,945.66 78.34,751.343 78.34,512C78.34,426.493 103.619,342.894 150.997,271.713L85.782,228.306Z" style="fill:rgb(248,89,59);"/>
        </g>
    </g>
</svg>
