<?xml version="1.0" encoding="UTF-8" standalone="no"?>
<svg
   width="24px"
   height="24px"
   viewBox="0 0 24 24"
   version="1.1"
   id="svg8"
   sodipodi:docname="logger.svg"
   inkscape:version="1.1.1 (1:1.1+202109281946+c3084ef5ed)"
   xmlns:inkscape="http://www.inkscape.org/namespaces/inkscape"
   xmlns:sodipodi="http://sodipodi.sourceforge.net/DTD/sodipodi-0.dtd"
   xmlns="http://www.w3.org/2000/svg"
   xmlns:svg="http://www.w3.org/2000/svg">
  <defs
     id="defs12" />
  <sodipodi:namedview
     id="namedview10"
     pagecolor="#ffffff"
     bordercolor="#666666"
     borderopacity="1.0"
     inkscape:pageshadow="2"
     inkscape:pageopacity="0.0"
     inkscape:pagecheckerboard="0"
     showgrid="false"
     inkscape:snap-bbox="true"
     inkscape:bbox-paths="false"
     inkscape:snap-smooth-nodes="true"
     inkscape:object-paths="true"
     inkscape:zoom="10.59187"
     inkscape:cx="10.810178"
     inkscape:cy="27.143459"
     inkscape:window-width="1920"
     inkscape:window-height="1060"
     inkscape:window-x="0"
     inkscape:window-y="27"
     inkscape:window-maximized="1"
     inkscape:current-layer="svg8" />
  <path
     id="rect1222"
     style="fill:#000000;stroke-width:4;stroke-linecap:round;stroke-linejoin:round;paint-order:markers fill stroke;stroke:none"
     d="M 6 2 C 4.3431458 2 3 3.3431458 3 5 L 3 17 L 1 17 L 1 19 C 1 20.656854 2.3431458 22 4 22 L 18 22 C 19.656854 22 21 20.656854 21 19 L 21 7 L 23 7 L 23 5 C 23 3.3431458 21.656854 2 20 2 L 6 2 z M 6 4 L 19 4 L 19 19 L 18.992188 19.117188 C 18.932872 19.620681 18.506975 19.999933 18 20 L 17.882812 19.992188 C 17.379319 19.932872 17.000067 19.506975 17 19 L 17 17 L 5 17 L 5 5 L 5.0078125 4.8828125 C 5.0671286 4.3793196 5.4930252 4.0000669 6 4 z " />
</svg>
