<?xml version="1.0" encoding="UTF-8" standalone="no"?><!DOCTYPE svg PUBLIC "-//W3C//DTD SVG 1.1//EN" "http://www.w3.org/Graphics/SVG/1.1/DTD/svg11.dtd"><svg width="100%" height="100%" viewBox="0 0 48 48" version="1.1" xmlns="http://www.w3.org/2000/svg" xmlns:xlink="http://www.w3.org/1999/xlink" xml:space="preserve" xmlns:serif="http://www.serif.com/" style="fill-rule:evenodd;clip-rule:evenodd;stroke-linejoin:round;stroke-miterlimit:2;"><path d="M24,0c13.246,0 24,10.754 24,24c0,13.246 -10.754,24 -24,24c-13.246,0 -24,-10.754 -24,-24c0,-13.246 10.754,-24 24,-24Zm5.037,15.653c-0.062,-0.024 -0.123,-0.054 -0.182,-0.089c-0.777,-0.448 -1.044,-1.444 -0.595,-2.222c0.449,-0.777 1.444,-1.044 2.222,-0.595l0.011,0.007l0.007,-0.012c4.022,2.322 6.5,6.614 6.5,11.258c0,7.175 -5.825,13 -13,13c-7.175,0 -13,-5.825 -13,-13c0,-4.644 2.478,-8.936 6.5,-11.258l0.007,0.012l0.011,-0.007c0.778,-0.449 1.773,-0.182 2.222,0.595c0.449,0.778 0.182,1.774 -0.595,2.222c-0.059,0.035 -0.12,0.065 -0.182,0.089c-2.921,1.762 -4.713,4.927 -4.713,8.347c-0,5.381 4.369,9.75 9.75,9.75c5.381,0 9.75,-4.369 9.75,-9.75c0,-3.42 -1.792,-6.585 -4.713,-8.347Zm-3.037,-7.671c0,-1.094 -0.888,-1.982 -1.982,-1.982l-0.036,0c-1.094,0 -1.982,0.888 -1.982,1.982l0,11.036c0,1.094 0.888,1.982 1.982,1.982l0.036,0c1.094,0 1.982,-0.888 1.982,-1.982l0,-11.036Z" style="fill:#e57cd8;"/></svg>